<svg xmlns="http://www.w3.org/2000/svg" xmlns:xlink="http://www.w3.org/1999/xlink" viewBox="0 0 538.58 160.13"><defs><style>.a{fill:url(#a);}.b{isolation:isolate;}.c{fill:#40464b;}.d,.h{fill:#1a9eda;}.e{mix-blend-mode:multiply;}.f{clip-path:url(#c);}.g{fill:url(#d);}.h{font-size:42px;font-family:EurostileCon-Reg, Eurostile Cond;letter-spacing:-0.01em;}</style><linearGradient id="a" x1="409.68" y1="80.41" x2="448.76" y2="80.41" gradientUnits="userSpaceOnUse"><stop offset="0.35" stop-color="#fff"/><stop offset="1"/></linearGradient><clipPath id="c" transform="translate(-28.35 -23.68)"><polygon class="a" points="448.76 30.36 426.51 30.36 409.68 101.91 424.25 130.47 448.76 30.36"/></clipPath><linearGradient id="d" x1="327.03" y1="831.88" x2="328.71" y2="831.88" gradientTransform="matrix(63.07, 0, 0, -63.07, -20249.95, 52548.41)" gradientUnits="userSpaceOnUse"><stop offset="0.42" stop-color="#fff"/><stop offset="1"/></linearGradient></defs><g class="b"><polygon class="c" points="118.15 6.68 101.31 78.23 84.17 6.68 56.67 6.68 39.23 78.23 22.24 6.68 0 6.68 24.65 106.79 53.36 106.79 70.35 30.73 87.18 106.79 115.89 106.79 140.39 6.68 118.15 6.68"/><path class="c" d="M248.44,30.36v71c0,15.18-9.47,30.66-37.72,30.66S173,116.49,173,101.31V30.36h22.54V99.2c0,8.12,3.91,12.78,15.19,12.78s15.18-4.66,15.18-12.78V30.36Z" transform="translate(-28.35 -23.68)"/><polygon class="c" points="229.38 6.68 229.38 106.79 292.36 106.79 292.36 86.8 251.92 86.8 251.92 65.01 289.2 65.01 289.2 45.01 251.92 45.01 251.92 26.68 292.36 26.68 292.36 6.68 229.38 6.68"/><polygon class="d" points="398.16 6.68 381.33 78.23 364.19 6.68 336.68 6.68 319.25 78.23 302.26 6.68 280.02 6.68 304.67 106.79 333.38 106.79 350.36 30.73 367.2 106.79 395.91 106.79 420.41 6.68 398.16 6.68"/><polygon class="c" points="45.66 121.89 39.13 149.43 35.07 149.43 27.13 120.04 29.64 120.04 37.01 147.44 43.59 120.04 47.73 120.04 54.31 147.44 61.68 120.04 64.19 120.04 56.25 149.43 52.19 149.43 45.66 121.89"/><path class="c" d="M98.86,151.62V169c0,1.59.83,2.16,2.34,2.16a22.72,22.72,0,0,0,8.25-2.47V151.62H112V173.1h-2.25l-.18-1.94a24,24,0,0,1-8.74,2.39c-3.35,0-4.54-1.9-4.54-4.86V151.62Z" transform="translate(-28.35 -23.68)"/><path class="c" d="M120.06,160.84h10.76V158.9c0-3.62-1.28-5.52-5.29-5.52s-5.47,1.9-5.47,5.52Zm5.6,10.46a27.42,27.42,0,0,0,6.8-1l.44,2.07a23.64,23.64,0,0,1-7.42,1.2c-6,0-8-3.14-8-7.81V159c0-4.41,2-7.81,8-7.81s7.81,3.4,7.81,7.81v4.15H120.06v2.69c0,3.84,1.32,5.48,5.6,5.48" transform="translate(-28.35 -23.68)"/><path class="c" d="M148,153.69a47.91,47.91,0,0,0-6.79,4V173.1h-2.56V151.62h2.29l.14,3.26a36.39,36.39,0,0,1,6.62-3.71Z" transform="translate(-28.35 -23.68)"/><polygon class="c" points="123.53 127.94 137.48 127.94 137.44 130.01 125.87 147.35 137.83 147.35 137.83 149.43 123.18 149.43 123.18 147.35 134.79 130.01 123.49 130.01 123.53 127.94"/><path class="c" d="M173.81,170.77a27.73,27.73,0,0,0,4.95.44c4.63,0,5.73-1.94,5.73-5.17V157.4c0-2.56-1.14-3.75-4-3.75a13.07,13.07,0,0,0-6.71,1.85ZM187.05,166c0,4.81-2.12,7.59-8.6,7.59a36.9,36.9,0,0,1-7.19-.8V142.83l2.55-.35v10.33a15.14,15.14,0,0,1,7.06-1.64c4.33,0,6.18,2.48,6.18,6.27Z" transform="translate(-28.35 -23.68)"/><path class="c" d="M195.14,151.62V169c0,1.59.83,2.16,2.34,2.16a22.78,22.78,0,0,0,8.25-2.47V151.62h2.55V173.1H206l-.18-1.94a24,24,0,0,1-8.74,2.39c-3.35,0-4.54-1.9-4.54-4.86V151.62Z" transform="translate(-28.35 -23.68)"/><path class="c" d="M223.8,153.69a47.91,47.91,0,0,0-6.79,4V173.1h-2.56V151.62h2.3l.13,3.26a36.39,36.39,0,0,1,6.62-3.71Z" transform="translate(-28.35 -23.68)"/><path class="c" d="M235.47,153.38c-4.28,0-5.78,1.32-5.78,5.25v.44c0,4.06,1.85,5.25,5.78,5.25s5.78-1.36,5.78-5.25v-.44c0-3.88-1.5-5.25-5.78-5.25m0,13.15a13.86,13.86,0,0,1-2.87-.27,3.59,3.59,0,0,0-1.67,2.83c0,.84.48,1.41,1.94,1.54l6.17.49c3.93.31,5.34,2.12,5.34,5.12,0,4.46-2.2,6-9.17,6a31.73,31.73,0,0,1-7.55-1.06l.4-2a34.89,34.89,0,0,0,7.23.88c5.83,0,6.58-1.19,6.58-3.66,0-2.12-.88-3-3.44-3.13-2.74-.18-3-.18-5.83-.4-3.18-.27-4.23-1.9-4.23-3.8a4.41,4.41,0,0,1,2-3.61c-2.17-1.24-3.18-3.4-3.18-6.44v-.27c0-4.85,2.16-7.55,8.25-7.55a12.24,12.24,0,0,1,3.62.45H245v1.85l-2.69.22a8,8,0,0,1,1.41,5V159c0,4.85-2.6,7.54-8.25,7.54" transform="translate(-28.35 -23.68)"/><polygon class="c" points="247.98 121.89 241.45 149.43 237.39 149.43 229.45 120.04 231.96 120.04 239.33 147.44 245.9 120.04 250.05 120.04 256.63 147.44 264 120.04 266.51 120.04 258.57 149.43 254.51 149.43 247.98 121.89"/><path class="c" d="M300,160.84h10.77V158.9c0-3.62-1.28-5.52-5.3-5.52s-5.47,1.9-5.47,5.52Zm5.61,10.46a27.27,27.27,0,0,0,6.79-1l.44,2.07a23.57,23.57,0,0,1-7.41,1.2c-6,0-8-3.14-8-7.81V159c0-4.41,2-7.81,8-7.81s7.82,3.4,7.82,7.81v4.15H300v2.69c0,3.84,1.33,5.48,5.61,5.48" transform="translate(-28.35 -23.68)"/><path class="c" d="M321.14,170.77a27.62,27.62,0,0,0,4.94.44c4.63,0,5.74-1.94,5.74-5.17V157.4c0-2.56-1.15-3.75-4-3.75a13,13,0,0,0-6.7,1.85ZM334.38,166c0,4.81-2.12,7.59-8.61,7.59a37,37,0,0,1-7.19-.8V142.83l2.56-.35v10.33a15.11,15.11,0,0,1,7.06-1.64c4.32,0,6.18,2.48,6.18,6.27Z" transform="translate(-28.35 -23.68)"/><polygon class="c" points="338.24 121.89 331.71 149.43 327.65 149.43 319.7 120.04 322.22 120.04 329.59 147.44 336.16 120.04 340.31 120.04 346.88 147.44 354.25 120.04 356.77 120.04 348.83 149.43 344.76 149.43 338.24 121.89"/><path class="c" d="M390.27,160.84H401V158.9c0-3.62-1.28-5.52-5.3-5.52s-5.47,1.9-5.47,5.52Zm5.61,10.46a27.41,27.41,0,0,0,6.79-1l.44,2.07a23.57,23.57,0,0,1-7.41,1.2c-6.05,0-8-3.14-8-7.81V159c0-4.41,2-7.81,8-7.81s7.81,3.4,7.81,7.81v4.15H390.27v2.69c0,3.84,1.32,5.48,5.61,5.48" transform="translate(-28.35 -23.68)"/><path class="c" d="M410.87,160.84h10.77V158.9c0-3.62-1.28-5.52-5.29-5.52s-5.48,1.9-5.48,5.52Zm5.61,10.46a27.34,27.34,0,0,0,6.79-1l.45,2.07a23.64,23.64,0,0,1-7.42,1.2c-6,0-8-3.14-8-7.81V159c0-4.41,2-7.81,8-7.81s7.81,3.4,7.81,7.81v4.15H410.87v2.69c0,3.84,1.33,5.48,5.61,5.48" transform="translate(-28.35 -23.68)"/><path class="c" d="M444.79,151.62l-8.56,10.59,8.92,10.9h-3.27l-8.73-10.9,8.47-10.59Zm-15.35,21.49V142.83l2.56-.35v30.63Z" transform="translate(-28.35 -23.68)"/><g class="e"><polygon class="a" points="420.41 6.68 398.16 6.68 381.33 78.23 395.91 106.79 420.41 6.68"/><g class="f"><rect class="g" x="376.53" y="52.48" width="105.37" height="55.87" transform="translate(247.14 465.47) rotate(-80)"/></g></g><polygon class="d" points="516.34 6.68 499.5 78.23 482.37 6.68 454.86 6.68 437.42 78.23 420.43 6.68 398.19 6.68 422.84 106.79 451.55 106.79 468.54 30.73 485.37 106.79 514.08 106.79 538.58 6.68 516.34 6.68"/><text class="h" transform="translate(432.03 149.63)">2020</text></g></svg>